<svg xmlns="http://www.w3.org/2000/svg" viewBox="0 0 256 256" width="20" height="20" fill-rule="nonzero" xmlns:v="https://vecta.io/nano"><path d="M128.125 21.333c-58.731 0-106.541 47.769-106.562 106.5-.011 18.773 4.906 37.101 14.229 53.25l-14.458 53.583 55.812-13.188c15.563 8.491 33.082 12.948 50.917 12.958h.042c58.72 0 106.51-47.78 106.542-106.5.021-28.469-11.049-55.236-31.167-75.375-20.117-20.128-46.853-31.218-75.354-31.229zm-.021 21.333c22.784.011 44.196 8.894 60.292 24.979 16.096 16.107 24.938 37.508 24.917 60.271-.021 46.976-38.232 85.188-85.229 85.188-14.219-.011-28.303-3.581-40.708-10.354l-7.188-3.917-7.937 1.875-21 4.958 5.125-19.042 2.313-8.542-4.417-7.667c-7.445-12.885-11.386-27.618-11.375-42.583.021-46.955 38.243-85.167 85.208-85.167zm-37.688 36c-1.781 0-4.662.667-7.104 3.333-2.443 2.656-9.333 9.089-9.333 22.188s9.542 25.76 10.875 27.542c1.323 1.771 18.418 29.5 45.479 40.167 22.485 8.864 27.052 7.115 31.938 6.667 4.885-.437 15.761-6.427 17.979-12.646s2.224-11.568 1.562-12.667c-.661-1.109-2.438-1.771-5.104-3.104-2.656-1.333-15.745-7.761-18.188-8.646s-4.229-1.333-6 1.333-6.859 8.646-8.417 10.417c-1.557 1.781-3.104 2.021-5.771.687-2.667-1.344-11.241-4.163-21.417-13.229-7.915-7.051-13.255-15.75-14.812-18.417-1.547-2.656-.146-4.115 1.188-5.438 1.195-1.195 2.646-3.109 3.979-4.667 1.323-1.557 1.781-2.667 2.667-4.438s.432-3.333-.229-4.667-5.84-14.481-8.208-19.75c-1.995-4.427-4.101-4.529-6-4.604-1.547-.064-3.313-.063-5.083-.063z" fill="#fff"/></svg>